#!OML:ASF H:\ManfredETheater\Project 1\Capture day 1\Session 1\subject.ASF
:FULLY-SPECIFIED
:DEGREES
337
root -7.66795 7.95994 4.57759 -9.16057 79.2947 -7.963
lowerback 64.6988 -1.19025 -7.47674
upperback 12.4406 -2.7553 2.46897
thorax -7.00602 -0.548151 7.01016
lowerneck 7.09876 -19.1459 -17.6895
upperneck -9.98971 -26.5234 27.3801
head 2.21861 -14.1383 9.75667
rclavicle 2.38542e-014 1.19271e-014
rhumerus -26.7546 -8.76902 -63.3321
rradius 96.8136
rwrist -20.1482
rhand -29.9805 -8.89292
rfingers 7.12502
rthumb -3.29864 -38.8472
lclavicle 2.38542e-014 1.19271e-014
lhumerus -20.032 10.5012 33.2452
lradius 109.083
lwrist 3.7871
lhand -19.1055 -1.24147
lfingers 7.12502
lthumb 7.2033 28.6159
rfemur -83.0242 -43.7098 -4.62618
rtibia 127.52
rfoot -24.2072 -4.81927
rtoes -21.4982
lfemur -80.588 58.2483 12.4414
ltibia 129.469
lfoot -38.8602 -30.6295
ltoes -25.0156
338
root -7.69449 7.97441 4.67041 -6.12866 79.7961 -5.29555
lowerback 64.4919 -1.33991 -7.46292
upperback 12.4771 -2.8843 2.42576
thorax -6.95418 -0.595841 7.01136
lowerneck 7.11523 -19.143 -17.6682
upperneck -10.3136 -26.4781 27.5621
head 2.14264 -14.1376 9.83249
rclavicle -1.11319e-014 -9.50191e-014
rhumerus -26.5234 -8.69372 -62.9909
rradius 96.6374
rwrist -20.3131
rhand -29.9167 -8.88687
rfingers 7.12502
rthumb -3.23696 -38.842
lclavicle -1.11319e-014 -9.50191e-014
lhumerus -19.6318 10.3804 33.422
lradius 108.497
lwrist 4.04154
lhand -18.9901 -1.25798
lfingers 7.12502
lthumb 7.31469 28.5956
rfemur -83.7628 -44.393 -4.31104
rtibia 128.004
rfoot -24.1583 -5.58183
rtoes -19.7741
lfemur -81.4125 57.304 11.3411
ltibia 128.888
lfoot -38.2655 -30.3252
ltoes -25.4883
339
root -7.71975 7.99457 4.76552 -2.67101 80.2529 -2.12942
lowerback 64.3963 -1.46133 -7.49828
upperback 12.4904 -3.01767 2.37866
thorax -6.92327 -0.643518 7.02941
lowerneck 7.12548 -19.1293 -17.6407
upperneck -10.6067 -26.4192 27.7055
head 2.06609 -14.1272 9.89757
rclavicle 1.59028e-014 -9.54166e-015
rhumerus -26.3042 -8.58104 -62.6953
rradius 96.4638
rwrist -20.3529
rhand -29.8321 -8.82
rfingers 7.12502
rthumb -3.15528 -38.7764
lclavicle 1.59028e-014 -9.54166e-015
lhumerus -19.2902 10.2855 33.583
lradius 107.929
lwrist 4.28633
lhand -18.8847 -1.27747
lfingers 7.12502
lthumb 7.41643 28.5725
rfemur -84.3509 -45.0205 -4.10103
rtibia 128.425
rfoot -24.2473 -6.13435
rtoes -18.7602
lfemur -81.9446 56.3248 10.4177
ltibia 128.254
lfoot -37.6692 -30.0862
ltoes -25.9121
340
root -7.74347 8.02003 4.86279 1.02084 80.665 1.32729
lowerback 64.3994 -1.58043 -7.54206
upperback 12.4795 -3.15856 2.32909
thorax -6.91761 -0.691967 7.05039
lowerneck 7.13375 -19.1048 -17.6113
upperneck -10.8681 -26.3484 27.8179
head 1.99081 -14.1083 9.95454
rclavicle 2.70347e-014 5.1684e-014
rhumerus -26.1039 -8.42395 -62.456
rradius 96.2865
rwrist -20.2311
rhand -29.7705 -8.71049
rfingers 7.12502
rthumb -3.09578 -38.6678
lclavicle 2.70347e-014 5.1684e-014
lhumerus -19.0111 10.2207 33.7391
lradius 107.379
lwrist 4.50267
lhand -18.8043 -1.30216
lfingers 7.12502
lthumb 7.49404 28.5451
rfemur -84.827 -45.6078 -3.92003
rtibia 128.798
rfoot -24.4296 -6.52749
rtoes -18.3614
lfemur -82.2317 55.3241 9.66766
ltibia 127.564
lfoot -37.1098 -29.8365
ltoes -26.3944
341
root -7.76548 8.0502 4.96155 4.78487 81.0488 4.88448
lowerback 64.4685 -1.72861 -7.54803
upperback 12.4476 -3.31167 2.27958
thorax -6.93694 -0.742993 7.06019
lowerneck 7.13142 -19.0731 -17.581
upperneck -11.0922 -26.2705 27.8968
head 1.92042 -14.0823 10.0004
rclavicle -2.78299e-014 -2.50469e-014
rhumerus -25.9344 -8.23436 -62.2616
rradius 96.1109
rwrist -19.9742
rhand -29.7226 -8.57426
rfingers 7.12502
rthumb -3.04952 -38.5322
lclavicle -2.78299e-014 -2.50469e-014
lhumerus -18.7949 10.1837 33.8997
lradius 106.853
lwrist 4.68656
lhand -18.7503 -1.35602
lfingers 7.12502
lthumb 7.54621 28.4894
rfemur -85.2327 -46.1788 -3.7109
rtibia 129.13
rfoot -24.6581 -6.80063
rtoes -18.3788
lfemur -82.3608 54.3016 9.05823
ltibia 126.827
lfoot -36.571 -29.5877
ltoes -26.8628
342
root -7.78557 8.084 5.06136 8.46202 81.4203 8.35437
lowerback 64.5656 -1.92995 -7.48109
upperback 12.3992 -3.48071 2.23185
thorax -6.97896 -0.798574 7.04825
lowerneck 7.12672 -19.0345 -17.5547
upperneck -11.291 -26.1859 27.9531
head 1.85288 -14.0507 10.0401
rclavicle -6.36111e-015 3.4191e-014
rhumerus -25.8006 -8.01362 -62.1022
rradius 95.9432
rwrist -19.6413
rhand -29.6816 -8.42365
rfingers 7.12502
rthumb -3.00992 -38.3822
lclavicle -6.36111e-015 3.4191e-014
lhumerus -18.6427 10.1783 34.0713
lradius 106.35
lwrist 4.82659
lhand -18.7087 -1.43198
lfingers 7.12502
lthumb 7.58636 28.412
rfemur -85.6111 -46.7645 -3.40856
rtibia 129.432
rfoot -24.91 -7.01881
rtoes -18.6689
lfemur -82.421 53.2725 8.55997
ltibia 126.052
lfoot -36.0481 -29.3596
ltoes -27.3255
343
root -7.80368 8.12063 5.16188 11.9926 81.7921 11.6547
lowerback 64.651 -2.19159 -7.32831
upperback 12.344 -3.66312 2.18942
thorax -7.03448 -0.858846 7.01256
lowerneck 7.11564 -18.992 -17.5286
upperneck -11.4725 -26.0972 27.9908
head 1.7872 -14.015 10.0738
rclavicle 3.02153e-014 -1.98785e-015
rhumerus -25.7016 -7.75348 -61.9811
rradius 95.7727
rwrist -19.1926
rhand -29.7063 -8.29633
rfingers 7.12502
rthumb -3.03382 -38.2545
lclavicle 3.02153e-014 -1.98785e-015
lhumerus -18.5526 10.206 34.2589
lradius 105.88
lwrist 4.91619
lhand -18.67 -1.52794
lfingers 7.12502
lthumb 7.62365 28.3147
rfemur -85.9993 -47.3739 -2.98183
rtibia 129.71
rfoot -25.1579 -7.22631
rtoes -19.1437
lfemur -82.4796 52.2467 8.14133
ltibia 125.249
lfoot -35.5183 -29.1574
ltoes -27.7575
344
root -7.81969 8.15951 5.26286 15.3968 82.1716 14.7972
lowerback 64.7023 -2.5128 -7.09145
upperback 12.2874 -3.85817 2.15276
thorax -7.09735 -0.924353 6.95433
lowerneck 7.10568 -18.9468 -17.4988
upperneck -11.6553 -26.004 28.0175
head 1.71764 -13.9766 10.1053
rclavicle -8.0309e-014 8.15017e-014
rhumerus -25.6351 -7.46609 -61.895
rradius 95.6088
rwrist -18.7022
rhand -29.7757 -8.20885
rfingers 7.12502
rthumb -3.10088 -38.166
lclavicle -8.0309e-014 8.15017e-014
lhumerus -18.5231 10.2644 34.4631
lradius 105.45
lwrist 4.9545
lhand -18.6279 -1.63829
lfingers 7.12502
lthumb 7.66427 28.2028
rfemur -86.4047 -48.0148 -2.4346
rtibia 129.97
rfoot -25.399 -7.44129
rtoes -19.7546
lfemur -82.5698 51.2336 7.77791
ltibia 124.428
lfoot -34.9689 -28.9802
ltoes -28.1444
